<svg width="70" height="70" viewBox="0 0 70 70" fill="none" xmlns="http://www.w3.org/2000/svg">
<rect x="0.5" y="0.5" width="69" height="69" rx="9.5" fill="url(#paint0_linear_49_73)"/>
<rect x="0.5" y="0.5" width="69" height="69" rx="9.5" stroke="url(#paint1_linear_49_73)"/>
<path d="M57.0337 21.4964H54.7821V19.6254C54.7821 18.1421 53.5753 16.9353 52.0921 16.9353H49.9462C48.4628 16.9353 47.2562 18.1421 47.2562 19.6254V27.3276H43.6602V25.2598C43.6602 23.759 42.4393 22.5382 40.9386 22.5382C40.3489 22.5382 39.8031 22.7273 39.3571 23.0472C38.9187 22.131 37.9825 21.4964 36.9007 21.4964C35.878 21.4964 34.9854 22.0634 34.5206 22.8996C34.0611 22.5454 33.4864 22.3335 32.8627 22.3335C31.9161 22.3335 31.0816 22.8199 30.594 23.5553C30.1177 23.1468 29.4998 22.8993 28.8248 22.8993C27.324 22.8993 26.1032 24.1201 26.1032 25.6209V27.3278H22.7441V25.3443C22.7441 24.9561 22.4295 24.6416 22.0415 24.6416C21.6534 24.6416 21.3388 24.9561 21.3388 25.3443V41.6675C21.3388 42.376 20.7625 42.9522 20.0541 42.9522H17.9079C17.1994 42.9522 16.6232 42.376 16.6232 41.6675V19.6254C16.6232 18.917 17.1995 18.3406 17.9079 18.3406H20.0538C20.7623 18.3406 21.3385 18.917 21.3385 19.6254V22.3497C21.3385 22.7378 21.6531 23.0523 22.0412 23.0523C22.4292 23.0523 22.7438 22.7378 22.7438 22.3497V19.6254C22.7438 18.1421 21.5371 16.9353 20.0538 16.9353H17.9079C16.4246 16.9353 15.2179 18.1421 15.2179 19.6254V21.4964H12.9663C11.8821 21.4964 11 22.3785 11 23.4627V37.8301C11 38.9143 11.8821 39.7964 12.9663 39.7964H15.2179V41.6674C15.2179 43.1507 16.4247 44.3575 17.9079 44.3575H20.0538C21.5371 44.3575 22.7438 43.1507 22.7438 41.6674V33.9652H25.1518V35.2483C25.1518 35.9076 25.3824 36.5513 25.8014 37.0606L27.9836 39.7137V52.3621C27.9836 52.7502 28.2982 53.0647 28.6862 53.0647C29.0743 53.0647 29.3889 52.7502 29.3889 52.3621V39.4618C29.3889 39.299 29.3323 39.1412 29.2288 39.0154L26.8867 36.1678C26.6741 35.9094 26.557 35.5828 26.557 35.2483V33.9652L39.8453 34.0465C40.2334 34.0465 40.548 33.732 40.548 33.3438C40.548 32.9557 40.2334 32.6412 39.8453 32.6412H36.6483C35.9887 32.6412 35.4521 32.1045 35.4521 31.4451C35.4521 30.7855 35.9887 30.2489 36.6483 30.2489H42.6899C43.105 30.2489 43.4427 30.5865 43.4427 31.0016V35.2482C43.4427 35.5827 43.3256 35.9094 43.113 36.1677L40.7709 39.0153C40.6674 39.1412 40.6109 39.2988 40.6109 39.4617V41.315C40.6109 41.7031 40.9255 42.0176 41.3135 42.0176C41.7016 42.0176 42.0162 41.7031 42.0162 41.315V39.7136L44.1983 37.0606C44.6172 36.5512 44.8479 35.9076 44.8479 35.2482V33.9651H47.2559V41.6673C47.2559 43.1506 48.4627 44.3574 49.9459 44.3574H52.0918C53.5752 44.3574 54.7818 43.1506 54.7818 41.6673V39.7963H57.0334C58.1177 39.7963 58.9997 38.9142 58.9997 37.83V23.4627C59 22.3785 58.1179 21.4964 57.0337 21.4964ZM12.9663 38.3911C12.6569 38.3911 12.4053 38.1394 12.4053 37.8301V23.4627C12.4053 23.1533 12.6569 22.9018 12.9663 22.9018H15.2179V38.3911H12.9663ZM40.9385 23.9435C41.6644 23.9435 42.2548 24.534 42.2548 25.2598V27.8758C42.2548 28.2468 42.0974 28.5959 41.828 28.8437H40.0488C39.7795 28.5959 39.6221 28.2468 39.6221 27.8758V25.2598C39.6221 24.534 40.2126 23.9435 40.9385 23.9435ZM35.5842 24.2181C35.5842 23.4923 36.1747 22.9018 36.9005 22.9018C37.6263 22.9018 38.2168 23.4923 38.2168 24.2181V27.8758C38.2168 28.2468 38.0594 28.5959 37.79 28.8437H36.6484C36.4544 28.8437 36.2656 28.8657 36.0836 28.9061C35.7708 28.6592 35.5841 28.2833 35.5841 27.8758L35.5842 24.2181ZM31.5462 25.055C31.5462 24.3293 32.1367 23.7387 32.8625 23.7387C33.5883 23.7387 34.1789 24.3293 34.1789 25.055V27.8757C34.1789 28.6016 33.5884 29.1921 32.8625 29.1921C32.1366 29.1921 31.5462 28.6016 31.5462 27.8757V25.055ZM27.5082 25.6208C27.5082 24.895 28.0987 24.3045 28.8245 24.3045C29.5503 24.3045 30.1408 24.895 30.1408 25.6208V27.8758C30.1408 28.6017 29.5503 29.1922 28.8245 29.1922C28.0987 29.1922 27.5082 28.6017 27.5082 27.8758V25.6208ZM22.7439 28.7329H26.242C26.602 29.8148 27.6233 30.5974 28.8246 30.5974C29.6249 30.5974 30.3455 30.25 30.8439 29.6984C31.3423 30.2499 32.0624 30.5974 32.8626 30.5974C33.4422 30.5974 33.9788 30.4135 34.4206 30.1034C34.1837 30.4954 34.0471 30.9545 34.0471 31.4451C34.0471 31.8438 34.1375 32.2218 34.2985 32.5598H22.7439V28.7329ZM44.8482 32.5599V31.0017C44.8482 30.0709 44.2557 29.2758 43.4281 28.9737C43.4628 28.8951 43.4936 28.8147 43.5208 28.7329H47.2562V32.5599H44.8482ZM57.5947 37.8301C57.5947 38.1395 57.3431 38.3911 57.0337 38.3911H54.7821V36.3605C54.7821 35.9724 54.4675 35.6579 54.0795 35.6579C53.6914 35.6579 53.3768 35.9724 53.3768 36.3605V41.6674C53.3768 42.3759 52.8005 42.9521 52.0921 42.9521H49.9462C49.2377 42.9521 48.6615 42.3759 48.6615 41.6674V19.6254C48.6615 18.917 49.2378 18.3406 49.9462 18.3406H52.0921C52.8006 18.3406 53.3768 18.917 53.3768 19.6254V33.366C53.3768 33.7542 53.6914 34.0687 54.0795 34.0687C54.4675 34.0687 54.7821 33.7542 54.7821 33.366V22.9018H57.0337C57.3431 22.9018 57.5947 23.1534 57.5947 23.4627V37.8301Z" fill="#513D26"/>
<path d="M41.314 43.6068C40.9259 43.6068 40.6113 43.9213 40.6113 44.3095V52.3619C40.6113 52.7501 40.9259 53.0646 41.314 53.0646C41.702 53.0646 42.0166 52.7501 42.0166 52.3619V44.3095C42.0166 43.9213 41.7021 43.6068 41.314 43.6068Z" fill="#513D26"/>
<defs>
<linearGradient id="paint0_linear_49_73" x1="-2" y1="9" x2="70" y2="67.5" gradientUnits="userSpaceOnUse">
<stop stop-color="#AE813C"/>
<stop offset="0.5" stop-color="#F6D5A3"/>
<stop offset="1" stop-color="#9F7331"/>
</linearGradient>
<linearGradient id="paint1_linear_49_73" x1="6.46072e-08" y1="6.5" x2="73" y2="70" gradientUnits="userSpaceOnUse">
<stop stop-color="white" stop-opacity="0.25"/>
<stop offset="0.5" stop-color="white"/>
<stop offset="1" stop-color="#999999" stop-opacity="0.25"/>
</linearGradient>
</defs>
</svg>
